Coordinates
version=1
nRows=16
nColumns=38
inDegrees=no

Units are S.I. units (second, meters, Newtons, ...)
If the header above contains a line with 'inDegrees', this indicates whether rotational values are in degrees (yes) or radians (no).

endheader
time	pelvis_tilt	pelvis_list	pelvis_rotation	pelvis_tx	pelvis_ty	pelvis_tz	hip_flexion_r	hip_adduction_r	hip_rotation_r	knee_angle_r	ankle_angle_r	subtalar_angle_r	mtp_angle_r	hip_flexion_l	hip_adduction_l	hip_rotation_l	knee_angle_l	ankle_angle_l	subtalar_angle_l	mtp_angle_l	lumbar_extension	lumbar_bending	lumbar_rotation	arm_flex_r	arm_add_r	arm_rot_r	elbow_flex_r	pro_sup_r	wrist_flex_r	wrist_dev_r	arm_flex_l	arm_add_l	arm_rot_l	elbow_flex_l	pro_sup_l	wrist_flex_l	wrist_dev_l
0.866667	-0.125509	0.0918434	0.00520223	0.927743	0.949478	-0.317842	0.940161	0.0121616	0.215545	-2.13822	0.0637732	-0.0319619	-0.00910766	0.0763516	0.271363	0.163411	-0.570604	0.365278	-0.0238156	-0.0487118	-0.124278	-0.053577	-0.268972	-0.736301	-0.338657	-0.109305	1.2451	2.04343	0.018341	-0.00793094	-0.325587	-0.296218	-0.0517378	2.09873	2.14206	0.0669041	-0.0375241
0.875	-0.128642	0.0700029	-0.00403535	0.931016	0.955247	-0.317284	0.963329	0.042121	0.205475	-2.07177	0.0794941	-0.0319619	-0.00910766	0.0101141	0.240001	0.163755	-0.502614	0.300438	-0.0238156	-0.0487118	-0.108743	-0.026667	-0.274972	-0.768561	-0.351564	-0.113315	1.27331	2.033	0.018341	-0.00793094	-0.324988	-0.292629	-0.0458898	2.12352	2.14891	0.0669041	-0.0375241
0.883333	-0.132298	0.0483429	-0.0115963	0.934536	0.961222	-0.316689	0.981416	0.0700788	0.193191	-1.99934	0.0941851	-0.0319619	-0.00910766	-0.0527247	0.208447	0.159081	-0.435759	0.222127	-0.0238156	-0.0487118	-0.0926588	6.54297e-05	-0.282936	-0.800555	-0.364044	-0.117522	1.30322	2.02204	0.018341	-0.00793094	-0.328017	-0.289903	-0.0398636	2.14818	2.15562	0.0669041	-0.0375241
0.891667	-0.136576	0.027543	-0.0177217	0.938154	0.967222	-0.316057	0.9951	0.0959962	0.180403	-1.92166	0.107716	-0.0319619	-0.00910766	-0.110701	0.177603	0.149399	-0.372752	0.134167	-0.0238156	-0.0487118	-0.0761511	0.0258079	-0.292447	-0.831858	-0.37575	-0.122292	1.33371	2.01152	0.018341	-0.00793094	-0.333935	-0.288282	-0.0333792	2.17236	2.16202	0.0669041	-0.0375241
0.9	-0.141651	0.00838116	-0.022692	0.941733	0.973071	-0.315387	1.00508	0.119748	0.168769	-1.83926	0.12009	-0.0319619	-0.00910766	-0.162581	0.148518	0.135406	-0.316116	0.0412341	-0.0238156	-0.0487118	-0.059192	0.0496198	-0.303064	-0.862013	-0.386472	-0.127677	1.36385	2.00228	0.018341	-0.00793094	-0.342095	-0.287871	-0.0262999	2.19579	2.16782	0.0669041	-0.0375241
0.908333	-0.147736	-0.00830073	-0.0267654	0.945152	0.978613	-0.314688	1.01199	0.140989	0.159733	-1.75249	0.131452	-0.0319619	-0.00910766	-0.207427	0.122347	0.118451	-0.268095	-0.0516407	-0.0238156	-0.0487118	-0.0416747	0.0704915	-0.314371	-0.890541	-0.396117	-0.133484	1.3929	1.99492	0.018341	-0.00793094	-0.351961	-0.288646	-0.0186218	2.21824	2.17268	0.0669041	-0.0375241
0.916667	-0.154997	-0.0216699	-0.0301434	0.948315	0.98372	-0.313991	1.01631	0.159158	0.154408	-1.66157	0.142033	-0.0319619	-0.00910766	-0.244639	0.10026	0.100374	-0.230586	-0.139632	-0.0238156	-0.0487118	-0.0235162	0.0874486	-0.325991	-0.916959	-0.404666	-0.139377	1.42032	1.98978	0.018341	-0.00793094	-0.363081	-0.290459	-0.0104512	2.23947	2.17626	0.0669041	-0.0375241
0.925	-0.163447	-0.0310005	-0.0329554	0.951155	0.988288	-0.313345	1.01827	0.17356	0.153507	-1.56668	0.152096	-0.0319619	-0.00910766	-0.274024	0.083297	0.0832114	-0.205063	-0.218653	-0.0238156	-0.0487118	-0.0047937	0.0996767	-0.337578	-0.940794	-0.412126	-0.144977	1.44568	1.98693	0.018341	-0.00793094	-0.375061	-0.293066	-0.00196761	2.25923	2.17834	0.0669041	-0.0375241
0.933333	-0.172855	-0.0357878	-0.0352666	0.953635	0.992254	-0.312807	1.01777	0.183514	0.157311	-1.46806	0.161912	-0.0319619	-0.00910766	-0.295843	0.0722207	0.0688352	-0.19251	-0.285738	-0.0238156	-0.0487118	0.0141232	0.106637	-0.348793	-0.961606	-0.418479	-0.149952	1.4687	1.98619	0.018341	-0.00793094	-0.387521	-0.296157	0.00661975	2.27723	2.17891	0.0669041	-0.0375241
0.941667	-0.182687	-0.0358432	-0.0371076	0.955738	0.995604	-0.312431	1.01437	0.188519	0.165693	-1.36616	0.171755	-0.0319619	-0.00910766	-0.310803	0.067388	0.058586	-0.19341	-0.339218	-0.0238156	-0.0487118	0.0325147	0.108153	-0.359288	-0.979013	-0.423654	-0.154078	1.48914	1.98715	0.018341	-0.00793094	-0.400078	-0.2994	0.0151186	2.29316	2.17814	0.0669041	-0.0375241
0.95	-0.192133	-0.0313395	-0.0385075	0.957473	0.998367	-0.312253	1.00735	0.188406	0.178176	-1.26168	0.18189	-0.0319619	-0.00910766	-0.31993	0.0686609	0.0529959	-0.207834	-0.378651	-0.0238156	-0.0487118	0.0493528	0.104454	-0.368689	-0.992718	-0.427511	-0.157266	1.50686	1.98924	0.018341	-0.00793094	-0.412341	-0.302476	0.0233866	2.30665	2.17632	0.0669041	-0.0375241
0.958333	-0.200207	-0.0228124	-0.0395217	0.95887	1.0006	-0.312285	0.995919	0.183414	0.193963	-1.15575	0.19253	-0.0319619	-0.00910766	-0.324377	0.0753757	0.0516569	-0.235594	-0.404601	-0.0238156	-0.0487118	0.0634368	0.0961766	-0.376609	-1.00254	-0.429868	-0.159567	1.52175	1.99178	0.018341	-0.00793094	-0.42394	-0.305104	0.0313426	2.31732	2.17376	0.0669041	-0.0375241
0.966667	-0.205919	-0.011124	-0.0402485	0.959967	1.00236	-0.312511	0.979389	0.174189	0.211962	-1.04992	0.203763	-0.0319619	-0.00910766	-0.325198	0.0863738	0.053265	-0.276382	-0.418346	-0.0238156	-0.0487118	0.0735942	0.0843129	-0.382672	-1.00841	-0.430533	-0.161141	1.53377	1.99408	0.018341	-0.00793094	-0.434565	-0.30705	0.0389508	2.32485	2.17075	0.0669041	-0.0375241
0.975	-0.208472	0.00261893	-0.0408362	0.96081	1.00371	-0.312892	0.957449	0.161717	0.230798	-0.946142	0.215468	-0.0319619	-0.00910766	-0.323134	0.100101	0.0558336	-0.329859	-0.421592	-0.0238156	-0.0487118	0.0789202	0.0701085	-0.386546	-1.01043	-0.429372	-0.162204	1.54295	1.99548	0.018341	-0.00793094	-0.444017	-0.308134	0.0461831	2.32899	2.16757	0.0669041	-0.0375241
0.983333	-0.207434	0.0171822	-0.0414757	0.96143	1.00466	-0.313361	0.930314	0.147201	0.248855	-0.846698	0.227263	-0.0319619	-0.00910766	-0.31853	0.114761	0.0570572	-0.39561	-0.416237	-0.0238156	-0.0487118	0.0789581	0.0549321	-0.387962	-1.00879	-0.42636	-0.162969	1.54941	1.99549	0.018341	-0.00793094	-0.452243	-0.308217	0.0529748	2.32961	2.16445	0.0669041	-0.0375241
0.991667	-0.202819	0.031349	-0.0423835	0.961846	1.00522	-0.313845	0.898769	0.131937	0.264394	-0.754041	0.238492	-0.0319619	-0.00910766	-0.311374	0.12851	0.0547513	-0.473007	-0.404207	-0.0238156	-0.0487118	0.0737901	0.0401271	-0.38674	-1.00379	-0.421618	-0.163583	1.55333	1.99379	0.018341	-0.00793094	-0.459358	-0.307199	0.0591902	2.32677	2.16156	0.0669041	-0.0375241
